
<svg xmlns="http://www.w3.org/2000/svg" version="1.1" xmlns:xlink="http://www.w3.org/1999/xlink" preserveAspectRatio="none" x="0px" y="0px" width="512px" height="512px" viewBox="0 0 512 512">
<defs>
<g id="Layer1_0_FILL">
<path fill="#FFFFFF" stroke="none" d="
M 494.3 193.3
Q 494.75 192.15 495.45 190.65 498.45 183.25 496.6 175.9
L 495.45 169.05
Q 495.3 163.3 492.35 158 488.75 152.15 482.5 149.05 481.35 148.35 479.55 147.9 473 145.7 466.1 147.55
L 465.8 147.55
Q 465.65 147.55 465.1 147.7 463.5 146.2 459.9 143.45 451.5 137.4 441.95 135.05 432.35 132.6 422.25 134.3
L 422.1 134.3
Q 406.25 136.75 391 140.45 367.4 104.4 334.75 80.8 324.6 73.05 311.35 71.5 298.2 69.8 286.05 74.75 274.9 71.3 263.6 72.75 252.1 74.55 242.1 81.25 229.65 89.65 223.9 102.95 218.15 116.4 220.45 131.15 222.25 141.3 227.4 149.7 232.6 158 240.8 163.9 262.45 180.15 276.9 205.95 281.95 214.95 290 221.15
L 289.35 223.65
Q 286.5 231.8 284.6 241.65 252.8 247.25 221.25 257.9 219.15 254.9 217.5 253.15
L 217.15 252.8
Q 195.05 229.2 171.9 208.25 149 187.25 126.85 170.3
L 126.65 170
Q 118.45 163.9 108.95 161.3 99.45 159 89.3 160.3 86 160.85 82.9 161.65 62.55 142.95 42.05 127.7
L 41.9 127.5
Q 37.95 124.7 33.5 123.6 29.1 122.3 24.35 122.8 23.2 122.95 22.55 123.1 17.8 123.95 13.85 126.55 9.95 129.05 7.15 132.75 4.15 136.75 2.85 141.3 1.55 146.05 2.2 150.8
L 2.4 151.95
Q 3.15 156.75 5.7 160.85 8.25 164.9 12.25 167.9 30.25 181.3 47.25 196.85 44.55 206.9 46 217.4 47.25 227.55 52.55 236.25 57.65 245.1 65.55 250.85 99.75 277.1 133.2 311.35
L 138.15 316.6
Q 134.55 325.75 134.55 335.45 134.55 362.2 122.1 389.25 115.5 403.15 118.15 418.25 120.6 433.35 131.25 444.8 138.45 452.7 148.35 456.95 157.65 460.95 168 460.95 176.7 460.95 185.7 457.8 197.5 453.7 205.7 444.5 218.5 445.15 230.5 439.25 239.85 434.7 246.25 427.3 252.8 419.7 256.05 410.05 261.1 394.85 264.1 379.55 264.75 376.3 265.4 373 267.35 361.2 268.2 349.4 282.3 345.25 297.75 342.2 302.8 346.75 308.65 349.9 332.45 362.55 350.5 386.1 356.9 394.15 365.4 399.1 373.95 403.8 383.95 405.3 394.95 406.8 405.4 403.5 415.9 400.25 424.4 392.85 430.5 387.45 434.65 380.25 438.7 373.3 440.2 365.45 447.1 359.7 451.35 352 455.9 344.15 457.25 335.3 459.4 323.5 455.9 312.2 452.65 301 444.65 292.35 418.85 264.65 388.4 247.25
L 388.4 246.95
Q 415.4 237.55 437.55 234.3 450.35 232.5 460.8 224.4 471.05 216.4 476.25 204.95 479.75 204.4 482.5 203.25 490.2 200.3 494.3 193.3 Z"/>
</g>

<g id="Layer0_0_FILL">
<path fill="#FF0033" stroke="none" d="
M 476.1 171.3
Q 476.1 170 475.45 169.2 474.75 168.2 473.6 167.7 472.5 167.2 471.5 167.55 464.8 169.55 458.55 172.3 455.25 165.25 448.35 160.5 438.25 152.75 425.25 154.75 403.25 158 381.85 164.25 358.55 123.3 323.3 97.7 312.75 89.95 300 92.25 292.6 93.4 286.85 97.55 277.35 91.8 265.9 93.6 253.25 95.75 245.7 106.05 238.2 116.4 240.15 129.2 242.1 141.8 252.65 149.5 277.55 167.9 294.2 197.4 300.45 208.65 312.9 212.15 314.6 212.45 316.2 212.8 313.3 216.4 311.5 220.85 309.65 225.25 308.2 230.5 304.6 240.85 302.6 253.8 302.15 256.75 302.15 259.55 255.2 266.4 210.95 283.65 209.65 274.45 203.1 267.2 197.5 261.35 192.1 255.75 154.2 216.85 115.05 186.9 104.5 179 92.05 181 84.55 181.85 78.75 185.75 56 163.4 30.4 144.55 28.4 143.3 26.3 143.45 24 143.9 22.85 145.7 21.4 147.55 21.7 149.85 22.05 151.95 23.85 153.45 48.65 171.8 70.95 193.45 63.7 203.4 65.55 215.7 67.1 228.5 77.5 236.4 113.05 263.65 147.65 299.35
L 147.85 299.5
Q 152.6 304.5 157.45 309.5 160.15 312.45 163.25 314.6 154.2 323.8 154.2 336.6 154.05 367.75 139.95 398.55 134.55 410.2 139.15 422.25 143.7 434.35 155.35 439.75 167 445.15 179.15 440.55 191.1 436.1 196.5 424.5 196.7 424.15 196.85 423.95 197.5 424.15 198.15 424.5 210.25 428.6 221.75 422.65 233.45 417.1 237.5 404.95 241.6 392.15 244.4 379.55 245.1 376.3 245.7 373 249.1 354.3 248.95 335.95 276.7 326.6 305.55 322 309.85 329.6 318.05 333.6 345.4 348.4 366.1 375.3 373.95 385.45 386.75 386.95 399.55 388.6 409.65 380.85 419.85 373 421.55 360.2 421.8 357.85 421.8 355.6 425.4 353.6 428.5 350.75 438.05 342 438.4 329.05 439.05 316.3 430.35 306.9 401 275.25 365.1 258.25 366.1 253.3 367.4 249.05 368.2 246.25 369.2 243.95 371.3 238.7 371.3 233.3 373.3 232.8 375.1 232.15 404.25 221 434.9 216.05 447.75 213.95 455.25 203.6 462.15 194.3 461.15 183.1 467.35 184.1 472.65 186.25 473.95 186.9 475.3 186.25 476.75 185.75 477.4 184.75 477.9 183.1 477.6 182 475.6 175.75 476.1 171.3
M 353.95 183.1
Q 354.45 182 355.6 181.5 370.15 175.75 385.1 171.6 400.85 167.05 417.25 164.1 418.4 163.9 419.55 164.55 420.55 165.25 420.85 166.55 421 167.9 420.4 169.05 419.55 169.8 418.25 170.15 402.25 173.15 386.9 177.55 372.15 181.7 357.85 187.4 356.75 187.7 355.6 187.4 354.3 186.75 353.75 185.55 353.45 184.25 353.95 183.1
M 325.9 219
Q 326.05 220.4 325.4 221.55 324.1 223.1 323.15 225.55
L 322.95 225.55
Q 317.9 238.05 315.2 254.9 315.05 256.1 315.05 257.05 314.9 258.05 315.05 258.9 315.2 260.05 314.3 260.95 313.6 261.95 312.3 262.1 311 262.1 310.2 261.35 309.05 260.5 309.05 259.4 309.05 258.25 309.05 256.9 309.05 255.4 309.2 253.8 311.9 236.05 317.35 223.1
L 317.35 223.25
Q 318.7 220.15 320.3 217.7 321.15 216.7 322.3 216.55 323.6 216.4 324.6 217.05 325.55 217.85 325.9 219
M 372.3 370.55
L 372.3 370.4
Q 350.35 342.2 321.45 326.6
L 321.45 326.75
Q 318.15 324.95 315.6 322.5 311.75 318.6 310.2 313.15 310 313 310 312.8 309.5 310.75 309.2 308.75 309.05 307.4 309.65 306.4 310.35 305.5 311.65 305.1 312.9 304.95 314.05 305.65 315.05 306.4 315.45 307.6 315.6 309.35 316.05 311.35
L 316.2 311.35
Q 317.35 315.3 320.15 317.9
L 320.15 318.1
Q 322 319.85 324.45 321.2 354.45 337.1 377.2 366.6 378 367.6 379 368.45 379.85 369.25 380 370.55 380 371.85 379.15 372.85 378.2 373.85 377 373.85 375.75 373.85 374.6 373 373.45 371.85 372.3 370.55
M 252.95 121.15
Q 253.75 121.95 253.9 123.3 253.9 125.2 253.9 127.2 254.05 127.85 254.2 128.5 255.9 134.45 260.8 137.85
L 260.8 138
Q 288.2 158 306.35 190.5
L 306.35 190.3
Q 307.05 191.45 307.85 192.6 308.85 193.45 308.65 194.75 308.5 196.05 307.5 196.85 306.35 197.7 305.2 197.7 303.95 197.4 303.1 196.55 302.15 195.3 301.15 193.8
L 301.15 193.6
Q 283.45 162.45 257.2 143.15
L 257.2 142.95
Q 255.55 142 254.2 140.65 248.95 135.6 247.8 127.85
L 247.8 127.7
Q 247.5 125.55 247.5 123.45 247.5 122.15 248.5 121.3 249.35 120.3 250.65 120.15 251.95 120.15 252.95 121.15
M 98.3 192
Q 97.35 192.8 96.05 192.8 95.05 192.8 93.9 192.95 86 194.15 81.25 200.15 76.35 206.4 77.5 214.3 78.15 219 80.9 222.95 81.75 223.95 81.4 225.1 81.4 226.4 80.25 227.25 79.25 228.1 78 227.75 76.65 227.55 75.8 226.55 72.2 221.55 71.4 215.15 69.8 204.6 76.2 196.4 82.55 188.2 92.9 186.9
L 93.05 186.9
Q 94.5 186.55 96.05 186.55 97.35 186.55 98.3 187.55 99.1 188.4 99.1 189.65 99.1 191 98.3 192
M 301.15 267.9
Q 302.45 267.75 303.45 268.5 304.45 269.2 304.75 270.5 304.95 271.85 304.1 272.8 303.3 273.95 301.95 273.95 264.25 279.7 228.35 292.35 213.6 297.4 199.15 303.65 198 304.15 196.85 303.8 195.5 303.35 195.05 302.15 194.4 300.85 194.9 299.7 195.5 298.6 196.7 298.1 211.25 291.65 226.4 286.35 262.75 273.45 301.15 267.9
M 168.85 320
Q 168.85 319.85 169 319.85 170.6 318.6 172.25 317.25 173.25 316.45 174.6 316.6 175.85 316.75 176.5 317.9 177.3 318.85 177.15 320.2 177.15 321.35 176 322.15 174.6 323.35 173.1 324.5 168.15 329.6 168.35 336.45
L 168.35 336.6
Q 168 370.4 152.9 404.15 152.25 405.45 151.9 406.8 151.6 408.1 150.45 408.75 149.5 409.4 148.15 409.1 146.85 408.75 146.15 407.6 145.55 406.45 145.85 405.1 146.35 403.65 147 402.05
L 147 401.85
Q 161.9 369.25 162.15 336.6
L 162.15 336.45
Q 161.9 326.9 168.85 320 Z"/>
</g>
</defs>

<g transform="matrix( 1, 0, 0, 1, 0,0) ">
<use xlink:href="#Layer1_0_FILL"/>
</g>

<g transform="matrix( 1, 0, 0, 1, 0,0) ">
<use xlink:href="#Layer0_0_FILL"/>
</g>
</svg>
