<svg aria-hidden="true" style="position: absolute; width: 0; height: 0; overflow: hidden;" version="1.1" xmlns="http://www.w3.org/2000/svg" xmlns:xlink="http://www.w3.org/1999/xlink">
    <defs>
      <symbol id="icon-twitter" viewBox="0 0 512 512">
        <path
          d="M 438 175.55L 438 163.6Q 468.3 140.45 484.25 114.45 460.05 126.4 431.1 129.3 462.2 110.2 472.25 77.25 444.1 94.25 412.75 100.35 385.65 71.1 346.6 70.05 308.35 69 280.15 96.1 262.1 113.35 254.9 136.5 246.95 161.45 253.05 185.65 196.75 182.7 146.5 157.45 95.2 131.45 59.9 88.15 46.85 109.4 46.85 134.35 46.85 185.65 89.1 212.75 64.95 212.75 46.85 200.8L 46.85 202.9Q 45.8 235.85 67.85 262.15 89.1 287.1 121.25 294.3 102.15 300.4 79 295.35 88.05 323.5 112.25 341.6 136.4 359.65 166.45 360.7 115.15 400.85 49.8 400.85L 27.75 399.75Q 95.2 442 171.5 442 292.1 442 369.7 355.65 438 277.3 438 175.55 Z"
        />
      </symbol>
      <symbol id="icon-facebook" viewBox="0 0 512 512">
        <path
          d="M397.1 193.8L 365.2 193.75Q 360.1 193.45 355.7 196.8 351.2 200.2 350.3 205.15 350.2 212.25 350.2 222.6 350.2 228.45 350.25 240.05L 397.05 240.1Q 395.65 261 391.4 290.3 384.5 290.35 370.7 291.05 356.95 291.7 350.05 291.75 350 315.3 350 366.25 350.05 417.5 349.95 441.95L 384.75 441.95Q 408.95 441.95 425.7 423.15 441.95 404.85 441.95 379.7L 441.95 126.8Q 442 102.2 425.7 86.05 409.45 70 384.75 70L 131.85 70Q 106.7 70 88.65 86.05 70.05 102.6 70.05 126.8L 70.05 379.7Q 70.05 391.8 75.1 403.3 79.9 414.35 88.65 423.15 97.35 431.95 108.3 436.9 119.8 442 131.85 442L 288.4 442Q 288.3 416.75 288.35 366.3 288.4 314.35 288.3 291.75 283.05 291.7 273.3 291.4 263 291.05 258.3 291L 258.3 240.6Q 268.3 240.5 288.3 240.4 288.4 234.45 288.35 216 288.25 200.8 288.6 191.65 289.35 181.55 293.1 172.85 297.15 163.4 304.1 157 319.2 142.6 347.75 141.75 355.95 141.65 397.15 141.65 397.25 170.65 397.1 193.8 Z"
        />
      </symbol>
      <symbol id="icon-instagram" viewBox="0 0 512 512">
        <path
          d="M358.25 74.05Q 346.8 71.75 332.7 71.1 316.75 70.4 305.85 70.2 292 70 256 70 220 70 206.15 70.2 195.25 70.4 179.3 71.1 165.1 71.75 153.75 74.05 143.6 76.05 134.15 79.75 115.25 86.85 101.2 101.2 86.9 115.2 79.75 134.15 76.1 143.6 74.05 153.75 71.75 165.15 71.1 179.3 70.4 195.2 70.2 206.1 70 219.95 70 255.95 70 292 70.2 305.85 70.4 316.7 71.1 332.65 71.75 346.85 74.05 358.2 76.1 368.35 79.75 377.8 86.8 396.65 101.2 410.75 115.3 425.15 134.15 432.2 143.6 435.9 153.75 437.9 165.1 440.2 179.3 440.85 195.25 441.55 206.15 441.75 220 442 256 442 292 442 305.85 441.75 316.75 441.55 332.7 440.85 346.85 440.2 358.25 437.9 368.4 435.9 377.85 432.2 396.6 424.95 410.8 410.8 424.95 396.55 432.2 377.8 435.9 368.35 437.95 358.2 440.2 346.85 440.9 332.65 441.6 316.7 441.75 305.85 442 292 442 255.95 442 219.95 441.75 206.1 441.6 195.2 440.9 179.3 440.2 165.1 437.95 153.75 435.9 143.6 432.2 134.15 425.1 115.25 410.75 101.2 396.75 86.9 377.85 79.7 368.4 76.05 358.25 74.05M365.7 111Q 378.05 115.55 387.05 124.9 396.5 134 401 146.3 403.4 152.55 404.8 159.2 406.85 168.6 407.4 180.85 408.1 196.35 408.3 207.1 408.45 220.2 408.45 256 408.45 291.75 408.3 304.85 408.1 315.65 407.4 331.15 406.85 343.35 404.8 352.75 403.4 359.45 401 365.65 396.3 377.85 387.05 387.1 377.85 396.25 365.7 400.95 359.5 403.4 352.75 404.8 343.35 406.85 331.15 407.4 315.65 408.1 304.85 408.25 291.75 408.45 255.95 408.45 220.25 408.45 207.15 408.25 196.3 408.1 180.8 407.4 168.65 406.85 159.2 404.8 152.5 403.4 146.3 400.95 134 396.5 124.9 387.05 115.5 377.95 111 365.65 108.55 359.45 107.15 352.75 105.15 343.35 104.6 331.15 103.9 315.65 103.75 304.85 103.5 291.75 103.5 256 103.5 220.2 103.75 207.1 103.9 196.35 104.6 180.85 105.15 168.6 107.15 159.2 108.55 152.55 111 146.3 115.5 134 124.9 124.9 133.95 115.55 146.3 111 152.55 108.55 159.2 107.15 168.65 105.15 180.85 104.55 196.35 103.85 207.15 103.7 220.25 103.5 256 103.5 291.75 103.5 304.85 103.7 315.65 103.85 331.15 104.55 343.35 105.1 352.75 107.15 359.4 108.55 365.7 111M344 293.15Q 351.5 275.4 351.5 255.95 351.5 236.55 344 218.8 336.75 201.65 323.55 188.45 310.3 175.2 293.2 167.95 275.45 160.45 256 160.45 236.6 160.45 218.85 167.95 201.65 175.2 188.45 188.45 175.25 201.65 167.95 218.8 160.45 236.55 160.45 255.95 160.45 275.4 167.95 293.15 175.25 310.3 188.45 323.5 201.65 336.75 218.8 344 236.55 351.5 255.95 351.5 275.4 351.5 293.15 344 310.3 336.75 323.55 323.5 336.75 310.3 344 293.15M299.85 212.15Q 308.45 220.7 313.1 231.85 318 243.35 318 255.95 318 268.6 313.1 280.1 308.45 291.25 299.85 299.8 291.25 308.4 280.1 313.1 268.65 318 256 318 243.4 318 231.85 313.1 220.75 308.4 212.15 299.8 203.6 291.25 198.85 280.1 194 268.6 194 255.95 194 243.35 198.85 231.85 203.6 220.7 212.15 212.15 220.75 203.55 231.85 198.85 243.4 194 256 194 268.6 194 280.1 198.85 291.25 203.55 299.85 212.15M355.25 134.35Q 346.05 134.35 339.45 140.9 332.95 147.45 332.95 156.7 332.95 165.95 339.45 172.5 346.05 179.05 355.25 179.05 364.55 179.05 371.05 172.5 377.6 165.95 377.6 156.7 377.6 147.45 371.05 140.9 364.55 134.35 355.25 134.35 Z"
        />
      </symbol>
      <symbol id="icon-youtube" viewBox="0 0 512 512">
        <path
          d="m470.75 148.3q-3.75-14.45-14.4-24.8-10.4-10.7-25.15-14.75-21.65-6-100.8-8.5l-74.4-1.25q-35.15 0-74.4 1.25-79.15 2.2-101.15 8.15-14.1 3.8-24.8 14.8-11 10.65-14.75 25.1-9.1 35.15-9.1 108l1.25 40.85q2.2 45.2 7.85 66.85 3.75 14.45 14.45 25.15 10.7 10.35 25.1 14.45 22.3 5.95 101.15 8.15 39.55 1.25 74.4 1.25l74.4-1.25q79.15-2.2 100.8-7.85 14.45-3.75 25.15-14.45 10.65-10.65 14.4-25.1 9.45-35.2 9.45-107.7 0-18.25-0.95-40.85-2.5-45.5-8.5-67.5m-259.65 175.2v-134.7l116.8 67.5-116.8 67.2z"
        />
      </symbol>
      <symbol id="icon-menu" viewBox="0 0 512 512">
        <path
          d="M 422 422L 422 358 90 358 90 422 422 422M 422 288L 422 224 90 224 90 288 422 288M 422 154L 422 90 90 90 90 154 422 154 Z"
        />
      </symbol>
      <symbol id="icon-close" viewBox="0 0 512 512">
        <path
          d="M 444.6 112.6L 399.35 67.35 256 210.75 112.6 67.35 67.35 112.6 210.75 256 67.35 399.35 112.6 444.6 256 301.25 399.35 444.6 444.6 399.35 301.25 256 444.6 112.6 Z"
        />
      </symbol>
      <symbol id="icon-logo" viewBox="0 0 512 512">
        <path
          d="M471.45 256.3q0-89.3-63.15-152.6-55-55-129.85-62-11-1.1-22.35-1.1-11.55 0-22.45 1.1-74.95 7-130.05 62Q40.55 167 40.55 256.3q0 89.15 63.05 152.2 63.25 62.95 152.5 62.95 89.05 0 152.2-62.95 63.15-63.05 63.15-152.2m-67-148.7q61.5 61.55 61.5 148.55 0 87.05-61.5 148.6Q343 465.9 256.1 465.9q-87 0-148.55-61.15-61.4-61.55-61.4-148.6 0-87 61.4-148.55Q169.1 46.2 256.1 46.2q86.9 0 148.35 61.4m52.45 148.55q0-83.2-58.8-142.05-58.9-58.85-142-58.85-83.3 0-142.05 58.85-58.8 58.85-58.8 142.05 0 83.25 58.8 142.1Q172.8 456.8 256.1 456.8q83.1 0 142-58.55 58.8-58.85 58.8-142.1m-71.15-75.25q9.15-1.45 16.9 4.2 4.95 3.5 7.2 8.85 4.75-2.2 9.6-3.6.75-.05 1.7.25.8.35 1.35 1.05.4.6.25 1.55-.15 3.3 1.25 7.7.1.95-.15 2.05-.6.9-1.55 1.25-1 .45-1.9 0-4-1.6-8.6-2.35.9 8.2-4.2 15-5.7 7.65-14.85 9.2-22.55 3.5-44 11.75-1.4.5-2.85.85 0 3.85-1.45 7.85-.6 1.7-1.25 3.5-.95 3.35-1.8 7 26.25 12.45 47.85 35.75 6.4 6.8 6.05 16.25-.4 9.5-7.3 15.8-2.25 2.15-4.95 3.6 0 1.75-.25 3.5-1.05 9.25-8.55 15-7.65 5.75-16.9 4.65-9.5-1.3-15.25-8.65-15.2-19.75-35.3-30.6-5.85-3-9.15-8.45-21.1 3.25-41.4 10.05.2 25.05-8.4 50.6-3 9-11.45 13.3-8.6 4.15-17.4 1.2-.45-.15-1.1-.35-.2.2-.2.35-4 8.7-12.85 11.75-8.8 3.4-17.4-.6-8.45-3.9-11.85-12.75-3.3-8.85.55-17.45 10.5-22.75 10.6-45.45 0-9.35 6.45-16.25-2.1-1.45-4.15-3.5-3.55-3.95-6.9-7.5l-.2-.1Q156.5 260.95 130.3 241q-7.45-5.85-8.75-15.25-1.3-9.1 4.15-16.25-16.3-15.85-34.6-29.5-1.4-1.1-1.7-2.7-.1-1.6.8-2.9 1.05-1.45 2.8-1.65 1.45-.15 2.9.85 18.7 13.85 35.5 30.25 4.2-2.95 9.75-3.75 9.15-1.3 16.95 4.55 28.65 22.05 56.45 50.55 4 4 8 8.35 4.85 5.35 5.85 11.95 32.5-12.6 66.85-17.45-.15-2.2.3-4.4 1.4-9.45 4.1-17.05 1.1-3.9 2.45-7.2 1.2-3.3 3.35-5.7-1.15-.25-2.25-.65-9.15-2.45-13.85-10.6-12-21.75-30.5-35.35-7.5-5.45-9.2-14.95-1.35-9.3 4.05-16.9 5.65-7.7 14.85-9.15Q277 134.65 284 139q4.2-3.05 9.6-3.8 9.45-1.6 17.1 3.8 25.85 18.8 43.05 49.05 15.65-4.55 32-7.15m-182.1 121.5q.15-.95-.4-1.6-.65-.8-1.65-.9-.9-.2-1.75.15-1.25 1.25-2.4 2.1v.25q-5.05 5.1-4.95 12.1-.1 24-11 47.85-.1 0-.1.15-.55 1.3-.7 2.4-.3.85.15 1.65.55.75 1.35 1.1 1.05.3 1.75-.2.75-.6 1.1-1.55.4-.85.6-1.8 11.15-24.85 11.3-49.6 0-5.2 3.65-8.85 1-1 2.1-1.75.8-.65.95-1.5m93.45-36.35q-.15-.95-.9-1.45-.7-.75-1.65-.6-28.2 4.25-54.85 13.6-11.1 3.8-22 8.55-.75.35-1.1 1.3-.35.8 0 1.7.35.95 1.3 1.3.9.3 1.6 0 10.7-4.65 21.5-8.6 26.45-9.2 54.1-13.35.9-.15 1.55-.7.65-.9.45-1.75m12.6-38.45q-1.4 1.75-2.25 4-4.15 9.8-6.05 22.95-.15 1.3-.4 2.4 0 .85.25 1.6 0 1 .7 1.6.8.55 1.7.55.95-.05 1.6-.8.5-.7.45-1.6V257q0-.85.05-1.6 2.05-12.75 5.75-22.05h.15q.75-1.75 1.7-3.05.5-.9.4-1.7-.1-1-1-1.45-.75-.65-1.65-.45-.95.15-1.4.9m-164.1-19.4q.85-.65.85-1.5 0-1.05-.85-1.55-.55-.75-1.5-.75-1.05 0-2.3.1-7.75 1.15-12.25 7.2-4.85 5.95-3.65 13.55.6 4.65 3.3 8.65.65.55 1.6.75.85.05 1.65-.35.75-.65.95-1.6.1-.9-.4-1.7-2.05-2.75-2.5-6.35-.95-5.65 2.65-10.2 3.55-4.55 9.3-5.5v.2q.75-.2 1.65-.2.95 0 1.5-.75m111.8-52.45q-.9 0-1.55.65-.7.65-.7 1.75.2 1.3.3 2.95v.2q1.05 7.05 6.8 11.05 19.35 14.3 32.3 37.25.7 1.1 1.3 2.1.75.75 1.6.9.95 0 1.75-.7.75-.55.95-1.5 0-.9-.6-1.55-.7-.8-1.15-1.75v.25q-13.4-23.85-33.5-38.6-4.25-3.1-5.05-8.2-.05-1.15-.05-2.6 0-.9-.75-1.55-.65-.8-1.65-.65m94.2 182.05q-.6-.6-1.2-1.4-16.9-21.5-38.9-33.3-1.8-.95-2.95-2.1l-.25-.2q-1.8-1.9-2.85-4.8v-.15q-.4-1.25-.5-2.7-.3-.9-1-1.3-.75-.7-1.6-.55-.95.25-1.4.95-.65.75-.6 1.75.4 1.55.65 3.05v.1q1.35 4.15 4.05 6.85 1.85 1.9 4.35 3.25v-.15q21.2 11.4 37.35 32.15v.15q.8.95 1.7 1.95.85.5 1.75.5.95-.05 1.5-.7.7-.8.7-1.75 0-.9-.8-1.6m30.65-148.1q-.15-.85-.9-1.55-.7-.5-1.75-.25-11.95 2.15-23.35 5.35-11.1 3.25-21.7 7.4-1.05.25-1.25 1.2-.5.9-.25 1.9.45.75 1.35 1.2.85.35 1.9 0 10.3-4.15 21.2-7.1 11.25-3.25 22.9-5.4.95-.2 1.55-1 .5-.75.3-1.75z"
        />
      </symbol>
      <symbol id="icon-eolapets" viewBox="0 0 276 67">
        <path
          d="m18.25 13.65q-6.05 0-10.8 3-7.45 4.9-7.45 16.35 0 11.05 7.15 16.05h-0.1q4.85 3.1 11.2 3.1 8 0 13.2-4.85 0.65-1.25-1.75-4-1.55-1.85-2.85-1.9-0.6 0-0.85 0.3-0.05 0-0.05 0.1-2.95 3.4-7.7 3.4-8.2 0-10.2-8.2-0.05-0.25 0-0.4 0.1-0.25 0.35-0.35 0.1-0.15 0.35-0.15h24.7q1.65-10.1-2.2-16.15-4.2-6.3-13-6.3m6.05 8.95l0.1 0.05q2.2 2.3 2.1 5.55 0 0.25-0.15 0.5-0.3 0.15-0.55 0.15h-16.75q-0.2 0-0.4-0.1-0.15-0.15-0.25-0.35t0-0.45q2.3-7.4 9.85-7.4 3.65 0 6.05 2.05m31.9-8.65q-6 0-10.75 3.05-7.45 4.9-7.45 16.35 0 11.05 7.2 16.1 4.75 3 11 3 6.2 0 11-2.95 7.3-5.05 7.3-16.15t-7.4-16.1q-4.95-3.3-10.9-3.3m-8.1 27.65l-0.05-0.05q-2.35-3.05-2.35-8.2 0-5.25 2.35-8.35 2.8-3.75 8.15-3.75 5.6 0 8.2 3.75l0.05 0.05q2.3 3.1 2.3 8.3 0 5.15-2.45 8.25v-0.05q-2.75 3.7-8.1 3.7-5.2 0-8.1-3.65m38.75-40.1q-0.15-1.45-3.8-1.45-3.75 0-3.85 1.45v49.35h7.75l-0.1-49.35m36 13.5v2.1q0 0.3-0.15 0.55-0.25 0.2-0.5 0.2-0.35 0-0.5-0.2-4.25-4.35-11.55-4.35-6.05 0-10.65 3.05h0.05q-7.55 4.95-7.55 16.25 0 11.2 7.05 16.1 4.7 3.2 11.1 3.2 6.7 0 11.55-4.3 0.25-0.25 0.55-0.25 0.25 0 0.45 0.25 0.15 0.2 0.15 0.5v2.75h7.3l-0.15-35.85q-0.15-1.5-3.5-1.5-3.45 0-3.65 1.5m-20.85 9.3q2.8-3.65 8.15-3.65 5.5 0 8.2 3.65 2.45 3.05 2.45 8.3 0 5.2-2.5 8.3v0.05q-2.8 3.65-8.15 3.65t-8.15-3.7q-2.35-3.1-2.35-8.3 0-5.25 2.35-8.3m78.35-7.2q-4.75-2.95-10.75-2.95-7.4 0-11.55 4.2-0.25 0.15-0.55 0.15-0.25 0-0.45-0.15-0.25-0.3-0.25-0.55v-1.95q-0.1-1.55-3.6-1.55-3.3 0-3.5 1.55l-0.15 51.5h7.25v-18.5q0-0.3 0.2-0.45 0.2-0.3 0.5-0.3 0.25 0 0.5 0.2 4.85 4.35 11.6 4.35 6.4 0 11.1-3.2 7.05-5 7.05-16.1 0-11.25-7.4-16.25m-0.35 16.25q0 5.25-2.4 8.3-2.7 3.65-8 3.65-5.4 0-8.1-3.65-2.4-3.05-2.4-8.3 0-5.15 2.3-8.2 2.6-3.8 8.2-3.8 5.3 0 8 3.75 2.4 3.1 2.4 8.25m42.5-13.4q-4.1-6.35-13-6.35-6.05 0-10.75 3-7.55 4.95-7.55 16.35 0 11.05 7.2 16.1 4.8 3.05 11.1 3.05 8 0 13.15-4.75 0.8-1.3-1.7-4.1-1.5-1.8-2.8-1.85-0.65 0-0.95 0.3-2.95 3.5-7.7 3.5-8.1 0-10.2-8.3-0.05-0.15 0-0.4 0.15-0.2 0.35-0.3 0.1-0.15 0.35-0.15h24.7q1.75-10.05-2.2-16.1m-13 0.5q3.65 0 6.05 2.1l0.05 0.05q2.3 2.3 2.25 5.55 0 0.25-0.2 0.5-0.25 0.2-0.5 0.2h-16.75q-0.25 0-0.4-0.15-0.2-0.15-0.3-0.35-0.05-0.2 0-0.4 2.25-7.5 9.8-7.5m37.85-0.05q0.9-0.15 0.9-3.15 0-3.25-0.9-3.4h-5.15q-0.25 0-0.45-0.15-0.2-0.25-0.2-0.5v-11.85q0-0.35-0.25-0.5-0.85-0.85-3.6-0.85-2.65 0-3.5 0.85h-0.05q-0.3 0.15-0.3 0.5v11.85q0 0.25-0.2 0.5-0.15 0.15-0.5 0.15h-4.9q-1 0.15-1 3.25 0 3.15 1 3.3h4.9q0.35 0 0.5 0.25 0.2 0.15 0.2 0.45v29.55h7.75v-29.55q0-0.3 0.25-0.45 0.2-0.25 0.45-0.25h5.05m21.9 1.65q1.3 0.75 3.45-1.4 0.95-1 1.25-2.3-0.05-0.1 0-0.1 0.25-1 0-1.3-3.85-3.25-9.8-3.25-4.35 0-7.75 1.9-5.15 2.9-5.15 8.95 0.05 7.9 8.55 10.2 5.5 1.5 6.85 2.4h-0.05q2.05 1.35 2.05 3.95 0.1 4.6-6.55 4.6-3.8 0-6.7-2.75-0.5-0.25-1.55 0.1-1.25 0.55-2.15 1.5 0 0.05-0.05 0.1-0.85 0.7-1.1 1.95h-0.05q-0.3 0.9 0 1.35 4 4.5 11.5 4.5 7.25 0 11.2-3.85 3.25-3.25 3.25-7.6-0.05-7.9-8.45-10.85l-5-1.85q-3.8-1.35-3.75-4.2-0.05-3.45 4.6-3.7 2.9-0.15 5.4 1.65z"
        />
      </symbol>
      <symbol id="icon-logo-color" viewBox="0 0 256 256">
        <path
          d="M253.85 73.85q-.75-.3-1.2 0-1.3.4-2.5.7-2.65.85-4.85 2.05-1.9-4.15-5.65-6.8-6-4.3-13.25-3.2-12.45 1.8-24.6 5.55-13.2-23.6-33.35-37.85-5.75-4.3-13.1-3.15-3.9.75-6.65 2.65-.45.15-.9.5-.3-.35-.5-.5-5.35-2.9-11.1-1.9-3.05.45-5.45 1.9-3.45 1.7-6 5.15-4.35 5.9-3.25 13.1 1.05 7.3 7 11.55 13.3 9.8 22.4 24.8.55 1.1 1.4 2.45 2.5 4.6 6.85 6.7 1.65.95 3.6 1.5 1 .35 1.9.4-1.75 1.95-2.6 4.6-1.25 2.65-2 5.4-.7 2.3-1.3 4.85-.75 2.75-1.55 5.85-.1 1.3-.25 2.35-.25 1.85-.25 3.55-3.05.35-5.8.95-21.45 3.55-41.9 11.05-1.9.7-4 1.4-.75-5-4.55-9.2-3-3.25-6.05-6.5-3.15-3.3-6.55-6.25-1.55-1.55-3.05-3.2-9.05-8.8-18.35-16.75-8-6.7-15.6-12.8-5.95-4.25-13.1-3.2-4.3.5-7.4 2.6-8.8-8.35-18.15-16v.1q-3.5-2.75-7.15-5.5Q4 62 2.45 62 1.4 62.1.7 63.45q-.4.5-.65 1.1-.2.55 0 1.1.25 1.3 1.2 2.1 3.5 2.35 6.8 5.05.45.3 1.2.75Q17 80.05 24.2 87q.8.95 1.55 1.55-3.15 4.25-3.3 9-.15 1.85.15 3.55.9 7.3 6.75 11.8 1 .7 2 1.4 19 14.9 37.85 34.1l.2.45q2.55 2.6 5.35 5.45 1 1.15 2.05 1.95.65.65 1.1.9Q73 162.4 73 169.6q-.2 17.65-8.2 35.1-2.95 6.65-.4 13.25 2.45 6.95 9.1 10 6.5 3.1 13.35.55 6.9-2.5 9.9-9.2.2-.05.4-.15.3.1.6.15 7.05 2.4 13.45-.9 6.6-3.2 8.7-10.1 6.7-19.7 6.7-39 15.65-5.3 31.9-8.05 2.65 4.3 7.15 6.75 15.4 8.3 27.2 23.5 4.5 5.7 11.55 6.75 7.35.65 13-3.6 6-4.5 6.85-11.55.2-1.45.2-2.65 1.95-1.05 3.85-2.75 5.35-4.95 5.55-12.5.15-4.75-2.05-8.95-1.2-1.95-2.5-3.45-16.6-17.95-36.9-27.5.45-2.95 1.4-5.35.35-1.6.75-2.9.55-1.4.9-2.75.5-1.7.5-3.25 1.15-.25 2.05-.6 16.65-6.4 33.95-9.05 4.8-.85 8.35-3.85 1.6-1.3 3.1-3.2 3.8-5.45 3.25-11.65 3.5.6 6.55 1.75.8.3 1.55.05.85-.35 1.15-1 .35-.8.05-1.45-1.05-3.45-.75-6.1 0-.65-.45-1.1-.35-.6-.9-1M186 84.15q-.3-.8 0-1.45.25-.65 1-.95 8.1-3.15 16.75-5.65 8.95-2.6 18.15-4.3.6 0 1.15.35.7.3.7 1.25.2.6-.05 1.45-.5.45-1.3.45-9.15 1.65-17.7 4.25-8.35 2.35-16.45 5.3-.65.5-1.4 0-.6-.1-.85-.7M170.15 103q0 .7-.25 1.45-1 1.05-1.55 2.25-1.45 3.45-2.35 7.6-.65 2.2-1.15 4.45-.5 2.25-.75 4.65 0 .5-.15 1.1 0 .55.15 1.05 0 .75-.55 1.3-.35.5-1 .6-.9 0-1.4-.45-.5-.45-.5-1.35-.15-.35 0-1.15 0-.95.15-1.65.05-1.85.4-3.3.6-2.9 1.2-5.25 1.15-4.85 2.9-8.8.7-1.8 1.6-3.1.45-.65 1.35-.9.5-.1 1.2.45.55.45.7 1.05m-2.65 61q-1.7-1.05-3.2-2.3-2.05-2.35-3.15-5.45v-.2q-.35-.95-.5-2.25 0-.65.2-1.35.35-.55 1.2-.8.7 0 1.3.35.75.45.75 1.15.2 1 .55 2.2.1.5.2.9.8 1.55 1.85 2.9 1.25.85 2.65 1.75 16.9 9.1 29.8 25.85.6.5 1 .85.5.65.5 1.35 0 .55-.4 1.2-.35.75-1.1.75-.95 0-1.4-.75-.65-.65-1.4-1.2v-.1Q183.8 172.75 167.5 164M126.3 47.55q.45-.4 1.1-.4.8 0 1.45.3.35.55.35 1.4.1 1.15.1 2.15.15.45.15.9 1.05 3.15 3.7 5v.2q10 7.15 17.75 17.15 4.35 5.9 8.25 12.45H159q.35.75.85 1.25.65.6.65 1.4-.2.65-.75 1.1-.6.6-1.3.4-.85 0-1.25-.6-.5-.75-1.15-1.45v-.25q-2.7-4.25-5.15-8.2-8.55-12.1-19.65-20.4-.75-.6-1.8-1.5-2.85-2.85-3.6-7v-.05q-.15-1.35-.15-2.55 0-.65.6-1.3m-88.25 37.2h.15q.85-.25 1.75-.25.8 0 1.35.5.5.7.5 1.35 0 .65-.5 1.2-.55.5-1.35.5-.65 0-1.45.3-4.25.45-6.8 3.85h-.2v.15q-2 2.5-2.15 5.2-.05 1.5 0 2.7.6 2.75 2.15 5 .4.5.2 1.3 0 .55-.8 1.2-.45.35-1.1.35-.8-.2-1.35-.8-1.95-2.85-2.55-6.45-.15-1.6-.15-3.3.4-3.7 2.7-7.3.3 0 .3-.1 3.6-4.45 9.3-5.4m119.75 48.7q-.6.55-1.1.85-3.05.35-5.8.7-18.45 3.3-36.1 9.3-2.8 1.3-5.8 2.15-5.25 2.05-10.7 4.5-.8.45-1.35.15-.5-.3-1-1.2-.25-.5 0-1.05.25-.85 1-1 6-2.9 12.05-4.9 2.3-.9 4.75-1.75 18.1-6.35 37.15-9.5 2.45-.6 5.15-.9.85-.25 1.35.25.6.35.85 1.05 0 .85-.45 1.35M81.05 160q1.1-.65 2.2-1.2.4-.55 1.25-.5.6 0 1.15.85.35.35.35 1.15-.2.75-.7 1.1-.8.55-1.85 1.55-2.75 2.6-2.55 6.65-.2 19.25-8.8 38.25-.35.85-.55 1.55-.1.5-.8 1-.55.55-1.2.15-.7-.15-1.25-.75-.35-.5-.15-1.4.2-.75.7-1.75 8.45-18.7 8.45-37.05 0-5.6 3.75-9.3v-.3z"
        />
      </symbol>
      <symbol id="icon-logo-circle" viewBox="0 0 256 256">
        <path
          d="M237.2 61.9l-.2-.2q-25.5-42.8-73.7-56.3l-2.4-.8Q111.3-8.7 66.6 16.1l-5.2 3Q18.1 45.5 4.6 95v.1q-13.2 49.4 11.1 93.8l3 4.8.7 1.2q21.6 35.4 58.8 50.8 4.7 1.9 9.5 3.4l.1.2 7.2 2 .8.1v.2l1.9.4q4.5 1.2 9 1.9l6.5 1v.1q1.9.3 4 .3 1.1.3 2.4.3 16.3 1.3 32-1.7 6.2-1.2 12.3-3 12.9-3.9 25.3-10.8l5.2-3.1q7.4-4.4 13.9-9.6 1.3-.8 2.3-1.8l2.2-1.8q26.7-22.9 37.3-58.4l1.2-4.3q2.3-8.9 3.5-17.5 5.6-39.7-14.5-76.3l-1.8-3-1.3-2.4M210.8 57q6.3 7.5 11.5 16.5t8.5 18.3q11.4 30.9 2.3 64.5-11.7 43.3-50.7 66.1-38 21.8-80.5 11.3-1-.1-2.2-.5-33.5-9-54.5-34.3-6.4-7.5-11.5-16.4-5.2-9-8.5-18.3-6-15.8-6.4-32.4-.4-15.8 4-32 11.6-43.5 50.7-66.1 39.1-22.6 82.7-11 1.1.5 2.3.8 14.8 4.3 27.3 11.9Q200 44 210.9 57m24.3 37q-2.5-8-6.3-15.6 1.8 2.8 3.1 5.5 6 11.8 8.4 24.5 1.5 7.8 1.7 15.7.5 12-1.5 24.3-2 11-5.8 21.4-4.4 11.4-11.3 21.5-11.7 17.3-29.3 27.7l3-2.4q6.2-4.7 11.7-10.3 5.8-6.3 10.7-13.3 4.7-7 8.5-14.6 3.8-8 6.4-16.5 2-7 3.3-14.3 1.7-9.3 2-18.8.4-9.3-1-18.5-1.2-8.1-3.6-16.3M36.9 45Q22.3 63 14.1 84.7q-7.9 21-8.2 43.4 0 22.3 6.2 43.8-4.2-9.7-6.3-19.8-4.6-22-1.1-44.2 3-20 13-37.6Q27.8 52.2 43 37.8 39.8 41.2 37 45m157 41.8q-8.5 1.3-16.8 3.8-9-16.1-22.8-25.9-3.9-3-8.9-2.2-2.6.6-4.6 1.9l-.6.3-.3-.3q-3.7-2-7.6-1.3-2 .3-3.8 1.3-2.3 1.1-4 3.5-3 4-2.2 8.9.7 5 4.8 7.9 9 6.7 15.3 17l.9 1.6q1.7 3.2 4.7 4.6 1.1.6 2.4 1 .8.3 1.3.3-1.1 1.3-1.8 3.1-.8 1.9-1.3 3.8l-.8 3.3q-.6 1.8-1.1 4l-.2 1.6-.2 2.3-3.9.7q-14.7 2.4-28.7 7.6l-2.7.9q-.5-3.4-3.1-6.3l-4.2-4.4q-2.1-2.3-4.4-4.3l-2-2.2q-6.2-6-12.6-11.4L74 99.1q-4-2.9-8.9-2.1-3 .3-5.1 1.8-6-5.8-12.3-11v.1l-4.9-3.8q-.7-.5-1.8-.5-.8.2-1.2 1l-.4.8q-.1.3 0 .8.1.8.8 1.3l4.6 3.5.8.5q5.4 4.5 10.3 9.2l1 1q-2.1 3-2.3 6.2l.1 2.4q.6 5 4.6 8l1.4 1q13 10.3 25.9 23.4l.2.3 3.5 3.7 1.5 1.3.7.6q-3.3 3.6-3.3 8.5-.2 12-5.7 24-1.9 4.5-.2 9 1.7 4.8 6.2 6.8 4.5 2.2 9.1.4 4.8-1.6 6.8-6.2l.3-.2.4.2q4.8 1.6 9.2-.7 4.5-2.1 6-6.8 4.4-13.5 4.4-26.7 10.7-3.6 21.9-5.5 1.8 3 4.8 4.6 10.6 5.7 18.6 16 3.1 4 8 4.7 5 .4 8.8-2.5 4.1-3 4.6-7.9l.2-1.8q1.3-.7 2.7-1.8 3.5-3.4 3.7-8.6.2-3.3-1.4-6.1-.8-1.3-1.7-2.3-11.3-12.3-25.2-18.9.3-2 1-3.5l.5-2 .6-2q.3-1 .3-2.1l1.4-.5q11.4-4.4 23.2-6.2 3.3-.5 5.7-2.6 1.2-.9 2.1-2.2 2.7-3.7 2.3-8 2.4.5 4.4 1.3.6.2 1.1 0 .6-.3.8-.7.2-.5 0-1-.7-2.3-.5-4.1 0-.5-.3-.8l-.7-.7q-.4-.2-.8 0l-1.6.5q-1.9.5-3.3 1.4-1.4-2.8-4-4.6-4-3-9-2.3m-27 10.4q5.7-2.1 11.5-3.8 6.2-1.8 12.4-3 .4 0 .8.3.5.2.5.8.2.4 0 1-.3.3-.9.3-6.3 1.1-12.1 3-5.7 1.5-11.2 3.5-.5.3-1 0-.4 0-.6-.5v-1q.2-.4.6-.6m9.1 72.3q.3.4.3.9 0 .4-.3.9-.2.5-.7.5-.7 0-.9-.5l-1-.9v-.1q-8.6-11-19.7-16.8l-2.2-1.7q-1.3-1.5-2.2-3.7v-.2l-.3-1.5q0-.5.2-.9.3-.4.8-.5.4 0 .8.3.5.2.5.7l.4 1.5.2.6q.5 1 1.3 2l1.8 1.2q11.5 6.2 20.3 17.6l.7.6m-49.7-96q.5 0 1 .3.3.3.3 1v1.5q.2.2.2.5.6 2.3 2.5 3.5v.1q6.8 4.9 12.1 11.7 3 4 5.6 8.5l.5.8q.4.5.4 1-.1.5-.5.8-.4.4-.9.3-.6 0-.8-.5l-.8-1v-.2l-3.5-5.5q-5.9-8.3-13.5-14l-1.2-1q-2-2-2.5-4.8v-1.8q0-.4.4-.8.3-.3.7-.3M66.7 99q.4 0 .8.4.3.4.3.8 0 .5-.3.9-.4.3-.8.3l-1.1.2q-2.8.4-4.6 2.7h-.2v.1q-1.3 1.7-1.4 3.5v1.8q.4 1.9 1.4 3.5.4.3.2.8 0 .4-.6.8-.3.3-.8.3-.5-.1-.8-.5-1.4-2-1.8-4.5l-.1-2.2q.3-2.6 1.9-5h.1q2.5-3.1 6.4-3.8h.1l1.3-.1m86.6 12.2q.3-.5.8-.5.5-.2 1 .2l.5.7q0 .6-.3 1-.7.7-1 1.6-1 2.3-1.6 5.1l-.8 3.1-.6 3.2v1.4q0 .5-.3.9-.3.3-.8.4-.5 0-.8-.3-.3-.3-.3-.8-.2-.4 0-.9v-1.1q0-1.3.3-2.3l.8-3.6q.8-3.3 2-6 .5-1.1 1.2-2.1m-11 20q1.7-.4 3.4-.5.6-.3 1 0l.6.8q0 .6-.3.9l-.8.6-3.9.5q-12.7 2.2-24.7 6.4l-4 1.4-7.2 3q-.6.3-1 .2-.4-.3-.7-.8-.1-.4 0-.8.3-.5.7-.6 4.1-2 8.3-3.4l3.2-1.2q12.3-4.3 25.4-6.4m-46.2 18.4q.3-.3.8-.3.4 0 .8.5.3.3.3.8-.2.6-.5.8l-1.3 1q-1.8 1.8-1.8 4.6 0 13.1-6 26.2l-.3 1q-.1.4-.5.6-.4.4-.9.2l-.8-.5q-.3-.4-.1-1l.3-1.2q5.9-12.8 5.9-25.3 0-3.8 2.6-6.3v-.2l1.5-.9z"
        />
      </symbol>
      <symbol id="icon-Yelp" viewBox="-99 178 64 64">
        <path
          fill="#e9e9e9"
          d="M-90 210l-1 10 1 2a2 2 0 002 1l10-2 4-2 1-2c1-2 0-3-1-3l-3-1a67 67 0 00-11-4c-1-1-1 0-2 1m23 30v-15l-2-2h-3l-2 3-8 9v1l1 1c1 2 9 5 12 5l2-2m15-3c3-1 8-8 8-10a2 2 0 00-1-2l-10-4-4-1-3 1v3l8 13h2m-5-23l12-3 1-2a22 22 0 00-7-11h-2l-7 9-2 3v3c1 1 1 2 2 1v1l3-1m-10-9a571 571 0 00-3-25c-3-1-13 2-15 4l-1 2 13 21c2 3 4 2 4 2s2 0 2-4"
        />
        <path
          fill="#bf2519"
          d="M-89 208a22 22 0 000 12 2 2 0 001 1l10-3 5-1 1-2-1-3-3-1a67 67 0 00-11-5l-2 1m22 31l1-10v-5l-2-2h-3l-2 3-8 9v1l1 1c1 2 9 5 12 4l1-1m16-3a22 22 0 008-10 2 2 0 00-1-2l-10-4-4-1c-1-1-2 0-3 1v3l8 12 2 1m-5-23l12-3 1-2a22 22 0 00-7-11h-3l-6 9-3 3v3c0 1 2 2 3 1h3m-10-9a837 837 0 00-3-25c-3-1-13 2-15 4l-1 2a1330 1330 0 0017 23s2-1 2-4"
        />
      </symbol>
      <symbol id="icon-Google" viewBox="0 0 534 544">
        <path
          d="M534 278c0-18-2-37-5-55H272v105h147c-6 34-26 64-54 83v68h87c52-48 82-118 82-201z"
          fill="#4285f4"
        />
        <path
          d="M272 544c74 0 135-24 181-65l-88-68c-25 16-56 26-93 26-71 0-131-48-153-113H29v70c46 92 140 150 243 150z"
          fill="#34a853"
        />
        <path
          d="M119 324c-11-33-11-70 0-104v-70H29c-39 77-39 168 0 244l90-70z"
          fill="#fbbc04"
        />
        <path
          d="M272 108c39-1 76 14 105 41l77-78a272 272 0 00-425 79l90 70c22-64 82-112 153-112z"
          fill="#ea4335"
        />
      </symbol>
      <symbol id="icon-share" viewBox="0 0 512 512">
        <path d="m449 256q0-26.55-18.75-45.3-18.75-18.7-45.25-18.7t-45.25 18.7q-3.05 3.1-5.6 6.35l-143.65-74.65q1.5-6.9 1.5-14.4 0-26.55-18.7-45.3-18.75-18.7-45.3-18.7-26.5 0-45.25 18.7-18.75 18.75-18.75 45.3 0 26.5 18.75 45.25t45.25 18.75q26.55 0 45.3-18.75 1.2-1.25 2.35-2.5l146 75.85q-0.65 4.55-0.65 9.4 0 4.8 0.65 9.35l-146 75.85q-1.15-1.25-2.35-2.5-18.75-18.7-45.3-18.7-26.5 0-45.25 18.7-18.75 18.75-18.75 45.3 0 26.5 18.75 45.25t45.25 18.75q26.55 0 45.3-18.75 18.7-18.75 18.7-45.25 0-7.55-1.5-14.45l143.65-74.65q2.55 3.25 5.6 6.35 18.75 18.75 45.25 18.75t45.25-18.75 18.75-45.25z"/>
      </symbol>
    </defs>
</svg>