<svg xmlns="http://www.w3.org/2000/svg" xmlns:xlink="http://www.w3.org/1999/xlink" preserveAspectRatio="none" viewBox="0 0 512 512"><path fill="#FFF" d="M399 117.4q-5.6-2.45-10.7-.7-13.35-10.1-29.2-8.5-9.8 1.1-18.55 3.85-.8-1.65-1.65-2.75-14.7-20.95-34.9-35.65h-.25q-12-8.75-27-6h-.3q-2.95.3-6 1.65-7.65-2.45-15.55-.8h-.55q-14.45 1.85-23.4 13.55-9.55 12.05-6.35 27.5 1.95 12.8 10.7 20.5 1.85 2.1 4.05 3.5 13.1 10.4 22.7 26.15 2.65 5.45 7.05 9.3-1.65 7.05-2.2 10.35-19.6 3.5-37.9 9.8-.8-1.4-1.65-1.95-4.05-4.35-7.6-7.85-22.65-23.15-45.85-41.7-.05 0-.05.05-3.65-2.95-7.05-5.55-7.85-5.7-17.2-6.7-4.05-.5-8.4-.05-.4.05-2.35.5-1.15.25-1.8.45L118.1 109.8q-18.5-16.15-30.05-2.75-14.7 17.05 2.3 30.5l19.2 16.15q-1.1 6 0 13.35 2.45 13.65 13.9 22.9 13.05 10.2 26.15 22.25 1.95 1.8 3.85 3.65 7.35 6.2 13.95 13.6.8 1.4 2.45 2.45-1.9 5.15-1.9 11.45v5.15q-8.75-1.65-17.75-1.65-37.4 0-64.1 26.15-18.8 18.55-24.55 42.55-24 1.35-41.2 18.5Q1 353.4 1 380.1q0 26.7 19.35 45.2 13.9 13.6 31.1 18.25h411.6Q478.6 438.1 490 426.4q21-20.45 21-51.5 0-29.15-21-49.55-20.45-21.8-50.15-21.8-1.65 0-3.55.55v-3.85q0-52.55-37.4-89.85-18.55-19.1-40.9-28.1 6.3-1.6 12.8-2.7h-.25q14.5-2.45 24-14.45 1.65-2.45 2.75-4.9.9-.4 1.7-.7 20-9.2 10.65-30.95-3.3-7.65-10.65-11.2Z" /><path fill="#f24" d="M281.4 350.75q-7.2 0-6.9 4.4l-.2 68.2q0 .6.4 1.05.4.4.95.4h11.4q.6 0 .95-.4.4-.45.4-1.05V401.2q6.25 4.3 14.3 4.3 9.25 0 15.95-4.6 10.2-7 10.2-22.9 0-16.15-10.8-23.1H318q-6.65-4.35-15.3-4.35t-14.25 4.15q-.1-3.95-7.05-3.95m12.5 17.9q3-3.85 8.8-3.85 5.8 0 8.8 3.85 2.6 3.55 2.6 9.35 0 5.9-2.6 9.4-3 3.95-8.8 3.95-5.65 0-8.65-3.95-2.75-3.55-2.75-9.4 0-5.8 2.6-9.35m-98.35-14.8q-10.9 6.95-10.9 23.2 0 15.95 10.3 22.9 6.75 4.6 15.95 4.6 8 0 14.15-4.4v1.55q0 .6.45 1.05.4.4.95.4h11.4q.6 0 1.05-.4.4-.45.4-1.05l-.2-47.6q.25-4.35-6.9-4.35-7.05 0-7.15 3.9-5.6-4.15-14.15-4.15-8.65 0-15.35 4.35m6.55 13.8v-.05q2.95-3.9 8.8-3.9 5.75 0 8.7 3.9 2.65 3.55 2.65 9.45 0 5.8-2.7 9.35-3.05 3.9-8.65 3.9-5.85 0-8.8-3.9-2.7-3.5-2.7-9.35 0-5.9 2.7-9.4m-29.9-35.45q-7.65 0-7.35 4.25v65.25q0 .6.45 1.05.4.4 1 .4h11.95q.6 0 1.05-.4.4-.45.4-1.05l-.2-65.25q.3-4.25-7.3-4.25m-53.3 22.55q-10.95 6.9-10.95 23.2 0 15.9 10.3 22.85 6.7 4.6 15.85 4.6 8.8 0 15.55-4.5 10.7-6.95 10.7-22.95 0-15.9-10.85-23-6.85-4.55-15.4-4.55t-15.2 4.35m6.45 13.7q2.95-3.85 8.75-3.85 5.9 0 8.8 3.85 2.65 3.55 2.65 9.5 0 5.75-2.7 9.4h-.05q-3 3.85-8.7 3.85-5.75 0-8.75-3.85-2.65-3.6-2.65-9.4 0-5.9 2.65-9.5m-59.3-14.2q-10.95 6.95-10.95 23.2 0 15.9 10.35 22.85v.05q6.7 4.6 15.85 4.6 11.45 0 18.8-7.1l.1-.1q2.75-2.9-2.2-8.35-2.85-3.3-5.4-3.3h-.05q-1.95-.1-3 1.25-3.2 3.65-8.25 3.65-8 0-10.4-7.15h30.95q.55 0 .95-.3.4-.35.45-.8 2.75-14.7-3.05-23.6-5.85-9.3-18.9-9.3-8.6 0-15.25 4.4m21.55 11.5q1.85 1.7 2.15 4.05h-18.4q2.85-6.25 9.95-6.3 3.85 0 6.3 2.25M438 369.3q-3.15-1.15-3.3-3.25.15-2.45 3.6-2.6h.05q2.95-.15 5.6 1.8 3.1 2.6 7.7-2.25 1.5-1.7 2.05-4.05v.05q.9-3.25-.75-4.2-5.6-4.85-14.4-4.85-6.2 0-11.25 2.9-7.75 4.35-7.8 13.75-.05 11.85 12.85 15.45 6.55 1.9 8.15 2.9h.05q1.6 1.05 1.55 3.25-.2 3.6-6.2 3.6-3.95-.05-7.15-3-1.35-1.5-4.4-.25-2.1.8-3.6 2.35-.05 0-.05.05-1.6 1.5-2.2 3.7v-.05q-.85 2.7.5 3.95 5.95 6.75 16.8 6.75 10.65 0 16.3-5.7 4.8-4.8 4.8-11.6.1-12.05-12.5-16.4l-6.4-2.3m-95.25-15.05q-10.95 6.95-10.95 23.2 0 15.9 10.35 22.85v.05q6.75 4.6 15.85 4.6 11.45 0 18.85-7.1l.1-.1q2.7-2.9-2.2-8.35-2.95-3.3-5.45-3.3h-.05q-1.95-.1-3 1.25h-.05Q363.1 391 358 391q-7.95 0-10.4-7.15h30.95q.55 0 .95-.3.4-.35.45-.8 2.75-14.7-3-23.6-5.9-9.3-18.95-9.3-8.55 0-15.25 4.4M358 363.5q3.9 0 6.35 2.25 1.8 1.7 2.05 4.05h-18.3q2.85-6.25 9.9-6.3m41.95-31.4q-7.75 0-7.45 4.25v14.05h-5q-3.75-.3-3.75 6.4 0 6.95 3.75 6.65h5v38.15q0 .6.45 1.05.4.4 1 .4h11.95q.6 0 1.05-.4.4-.45.4-1.05l-.15-38.15h5.2q3.6.35 3.6-6.55 0-6.8-3.6-6.5h-5.35v-14.05q.35-4.25-7.1-4.25m-15.9-196.8q-2.1-4.65-6.6-7.75-6.85-5.05-15.2-3.8-14.6 2.25-28.65 6.35-2.25-3.95-4.7-7.7-1.3-2.1-2.65-3.9-13.25-19.25-31.3-32.3-6.85-4.95-15.35-3.6-4.9.75-8.7 3.55-6.3-3.9-13.75-2.6-8.4 1.3-13.35 8.15-5.05 6.85-3.7 15.25 1.15 6.9 6.05 11.55 1 .95 2.25 1.8 16.45 12.15 27.35 31.75 4.2 7.35 12.35 9.6 1.05.3 2.15.45-1.85 2.35-2.95 5.25-1.35 2.95-2.35 6.2-2.15 7.05-3.6 15.5-.35 1.95-.25 3.85-30.95 4.55-60.05 15.8-.9-6-5.25-10.75-3.6-3.85-7.2-7.45-22.05-22.55-44.5-40.65-3.15-2.5-6.3-4.95-3.85-2.8-8.2-3.65-3.3-.7-6.95-.2-5 .6-8.7 3.25-15.05-14.75-31.9-27.1-1.25-1-2.65-.85-1.6.35-2.35 1.5-.95 1.15-.7 2.7.15 1.4 1.45 2.35 16.3 12.2 30.95 26.55-4.85 6.5-3.65 14.55 1.15 8.4 7.95 13.6 8.3 6.35 16.55 13.5 7.3 6.2 14.5 13.05 7.6 7.2 15.15 15.05l.15.1q3.1 3.2 6.35 6.6 1.75 1.95 3.8 3.3-5.85 6-5.95 14.45-.05 20.45-9.35 40.85-3.55 7.7-.55 15.55 3 7.95 10.65 11.55 7.75 3.55 15.6.55 8.05-2.9 11.6-10.6.05-.15.15-.3.4.15.9.3 8.05 2.8 15.6-1.15 7.6-3.65 10.2-11.75 7.75-23.05 7.7-45.4 18.2-6.1 37.25-9.2 2.85 4.95 8.15 7.7 18.05 9.75 31.75 27.4 2.45 3.2 5.65 5.1 3.45 2.1 7.9 2.6 8.4 1.2 15.1-4.1 6.75-5.15 7.75-13.65.25-1.5.25-2.9 2.35-1.2 4.45-3.15 6.25-5.85 6.55-14.25.3-8.35-5.35-14.7-16.7-17.95-36.65-28.75-3.1-1.7-6.45-3.2.8-3.35 1.6-6.25.6-1.75 1.2-3.35 1.25-3.4 1.5-6.95 1-.25 2.15-.6.1-.1.3-.2 19.15-7.45 39.4-10.55 8.45-1.3 13.45-8.2 4.5-6.2 3.8-13.55 4.05.65 7.55 2.1.85.3 1.8 0 .9-.35 1.3-1.1.4-.85.15-1.7-1.15-4.1-1-7 0-.95-.4-1.5-.4-.65-1.05-1-.95-.3-1.6-.1-4.4 1.25-8.55 3.1m-47.45 3.4q-3.9 1.1-7.7 2.35-5.6 1.85-11.1 3.85-.75.35-1.35 0-.75-.3-1.1-.85-.3-.8.2-1.4.15-.7.9-1 6.25-2.4 12.45-4.45 3.45-1.1 6.95-2.1 10.4-3 21.05-4.85.65-.15 1.5.35.5.3.6 1.1.05.6-.2 1.35-.45.65-1.25.65-10.6 1.95-20.95 5m-6.35 124.85q.6.65 1.35 1.25.5.55.6 1.3 0 .7-.5 1.25-.5.6-1.25.6-.85 0-1.25-.5l-.3-.15q-.7-.6-1.2-1.4-.2 0-.2-.1-14.4-18.75-33.5-28.9-2.85-1.5-4.75-3.7-1.8-2.1-2.65-5.2v-.1q-.45-1.3-.55-2.7-.2-.7.2-1.3.55-.65 1.35-.75.55-.15 1.2.25.7.5.75 1.2.25 1.15.45 2.3 0 .2.15.2 1 3.5 3.75 5.45.85.65 1.75 1.1 18.7 10 33.25 27.95.8 1 1.55 1.95h-.2M283.8 147.5h-.1q.4.7 1 1.45.5.55.45 1.35-.2.75-.7 1.1-.6.65-1.35.4-.75 0-1.15-.6-.75-.75-1.25-1.75-.1 0-.1-.15-10.55-18.45-25.7-30.8-1.65-1.4-3.45-2.65-5.05-3.5-5.95-9.7l.1-.2q-.25-1.4-.25-2.85 0-.65.4-1.15.6-.7 1.4-.6.6 0 1.25.5.6.5.6 1.25v2.35q0 .15.1.15.7 4.65 4.55 7.35 3.6 2.55 6.9 5.55 13.5 11.95 23.25 29m13.05 17.95q.5.35.65 1.15 0 .75-.35 1.25-.9 1.2-1.55 2.8-3.45 8.5-5.25 19.85v.05q-.1.6-.1 1.25-.1.7 0 1.45 0 .55-.45 1.25-.4.55-1.25.6-.65.1-1.25-.3-.6-.45-.7-1.25-.05-.65 0-1.3 0-1.1.35-2.35 1.6-11.85 5.2-20.55.9-1.9 2.2-3.55.25-.6 1.05-.8.75-.05 1.45.45M145.4 145.1q.7-.2 1.25.4.55.6.6 1.3 0 .7-.6 1.25-.55.55-1.4.65-.65-.1-1.5.1-5.25.8-8.45 4.85-3.2 4.1-2.45 9.35.35 3.25 2.3 5.95.3.5.3 1.2-.15.85-.6 1.15-.55.45-1.5.45-.65-.1-1.1-.65-2.4-3.3-3-7.55-.9-6.75 3.2-12.1 4.15-5.45 10.85-6.35.95-.2 2.1 0m136.85 56.35q-.4.7-1.15.75-24.05 3.5-46.9 11.4-8.6 2.9-16.9 6.45-1.7.7-3.35 1.35-.35.2-.75.35-.75.3-1.5.1-.7-.45-.95-.95-.35-.75.1-1.45.2-.75.85-1 8.45-3.75 16.95-6.75 25.15-9.15 51.9-13.05.65-.1 1.3.4.6.3.75 1.05 0 .8-.35 1.35m-88.7 31.35q.6-.55 1.35-1.1.45-.35.95-.6.4-.4 1.25-.3.65 0 1.15.65.4.55.35 1.3-.15.8-.7 1.25-.45.3-.8.75-.6.3-1 .65-.2.05-.1.25-3.45 3.25-3.25 7.95-.2 22.35-10.25 44.65v-.1q-.3.75-.55 1.75-.2.6-.85 1.2-.7.25-1.35 0-.8-.1-1.15-.85-.35-.65-.2-1.25.2-1.1.7-2.1 0-.15.15-.15 9.75-21.55 9.9-43.15-.15-6.25 4.35-10.7l.05-.1Z" /></svg>